<svg width="9" height="16" viewBox="0 0 9 16" fill="none" xmlns="http://www.w3.org/2000/svg">
<path d="M1.27979 15.4775C1.60352 15.4775 1.86084 15.3613 2.08496 15.1455L8.45166 8.92822C8.73389 8.646 8.8667 8.35547 8.875 7.99854C8.875 7.6416 8.74219 7.34277 8.45166 7.06885L2.08496 0.843262C1.86084 0.627441 1.59521 0.51123 1.27979 0.51123C0.632324 0.51123 0.117676 1.02588 0.117676 1.66504C0.117676 1.98047 0.250488 2.2793 0.48291 2.51172L6.12744 7.99854L0.48291 13.4771C0.250488 13.7095 0.117676 14.0083 0.117676 14.3237C0.117676 14.9629 0.632324 15.4775 1.27979 15.4775Z" fill="#D7D7D7"/>
</svg>
