<svg width="31" height="42" viewBox="0 0 31 42" fill="none" xmlns="http://www.w3.org/2000/svg">
<path d="M30.0842 38.0909L27.9673 14.1073C27.8083 12.3007 26.3198 10.9373 24.5054 10.9373C24.0885 10.9373 23.7493 11.2762 23.7493 11.6933V15.4325C23.7493 15.8026 23.4695 16.1259 23.1002 16.1494C22.6953 16.1754 22.359 15.8548 22.359 15.4559V7.37446C22.359 3.39717 19.1238 0.161987 15.1465 0.161987C11.1692 0.161987 7.93405 3.39717 7.93405 7.37446V10.9373H5.78769C3.97327 10.9373 2.48472 12.3007 2.3257 14.1073L0.208883 38.0909C0.0307437 40.1178 1.62904 41.8727 3.67174 41.8727H26.6213C28.6643 41.8727 30.2623 40.1175 30.0842 38.0909ZM20.9686 10.9373H11.4708C11.0537 10.9373 10.7148 11.2762 10.7148 11.6933V15.4325C10.7148 15.8026 10.435 16.1259 10.0656 16.1494C9.6607 16.1754 9.3244 15.8548 9.3244 15.4559V7.37446C9.3244 4.16448 11.9365 1.55234 15.1465 1.55234C18.3565 1.55234 20.9686 4.16448 20.9686 7.37446V10.9373Z" fill="#1E6FB9"/>
<path d="M8.27441 27.7754H22.6334" stroke="white" stroke-width="2" stroke-linecap="round"/>
<path d="M7.92712 34.4027H22.2862" stroke="white" stroke-width="2" stroke-linecap="round"/>
</svg>
