<svg width="22" height="29" viewBox="0 0 22 29" fill="none" xmlns="http://www.w3.org/2000/svg">
<path fill-rule="evenodd" clip-rule="evenodd" d="M17.5269 25.5084C17.4993 25.7669 17.4286 25.926 17.369 26.0165H5.07543C5.01689 25.9271 4.94619 25.7691 4.91748 25.5084C4.84789 24.8479 4.2415 11.0113 4.01617 5.79118H18.3421C18.1797 10.0238 17.6009 24.8203 17.5269 25.5084ZM8.17157 2.80999C8.17157 2.45431 8.53054 2.1638 8.97236 2.1638H13.47C13.9141 2.1638 14.273 2.45431 14.273 2.80999V3.45839H8.17157V2.80999ZM16.6577 3.44959V3.00778C16.6577 1.47359 15.4162 0.225464 13.8897 0.225464H8.55591C7.02944 0.225464 5.78793 1.47359 5.78793 3.00778V3.44959H0.453003V5.7912H1.68125L2.60023 26.2438C2.6179 26.33 3.05309 28.3601 4.82036 28.3601H17.6231C19.4401 28.3601 19.8521 26.2007 19.8576 26.1422C20.3137 21.0702 20.7213 5.7912 20.7213 5.7912H21.9915V3.44959H16.6577ZM16.1895 7.23927H14.0765L13.5087 24.6733H15.6228L16.1895 7.23927ZM10.1651 24.6727H12.278V7.23853H10.1651V24.6727ZM6.81963 24.6734H8.93482L8.37372 7.39729L8.36819 7.23934H6.2541L6.8141 24.5144L6.81963 24.6734Z" fill="#AAAAAA"/>
<mask id="mask0" mask-type="alpha" maskUnits="userSpaceOnUse" x="0" y="0" width="22" height="29">
<path fill-rule="evenodd" clip-rule="evenodd" d="M17.5269 25.5084C17.4993 25.7669 17.4286 25.926 17.369 26.0165H5.07543C5.01689 25.9271 4.94619 25.7691 4.91748 25.5084C4.84789 24.8479 4.2415 11.0113 4.01617 5.79118H18.3421C18.1797 10.0238 17.6009 24.8203 17.5269 25.5084ZM8.17157 2.80999C8.17157 2.45431 8.53054 2.1638 8.97236 2.1638H13.47C13.9141 2.1638 14.273 2.45431 14.273 2.80999V3.45839H8.17157V2.80999ZM16.6577 3.44959V3.00778C16.6577 1.47359 15.4162 0.225464 13.8897 0.225464H8.55591C7.02944 0.225464 5.78793 1.47359 5.78793 3.00778V3.44959H0.453003V5.7912H1.68125L2.60023 26.2438C2.6179 26.33 3.05309 28.3601 4.82036 28.3601H17.6231C19.4401 28.3601 19.8521 26.2007 19.8576 26.1422C20.3137 21.0702 20.7213 5.7912 20.7213 5.7912H21.9915V3.44959H16.6577ZM16.1895 7.23927H14.0765L13.5087 24.6733H15.6228L16.1895 7.23927ZM10.1651 24.6727H12.278V7.23853H10.1651V24.6727ZM6.81963 24.6734H8.93482L8.37372 7.39729L8.36819 7.23934H6.2541L6.8141 24.5144L6.81963 24.6734Z" fill="white"/>
</mask>
<g mask="url(#mask0)">
</g>
</svg>
